<?xml version="1.0" encoding="UTF-8"?>
<svg id="Layer_1" data-name="Layer 1" xmlns="http://www.w3.org/2000/svg" viewBox="0 0 1422 1422">
  <defs>
    <style>
      .cls-1 {
        fill: #fff;
      }

      .cls-2 {
        fill: #231f20;
      }
    </style>
  </defs>
  <rect class="cls-2" width="1422" height="1422" rx="264.17" ry="264.17"/>
  <g>
    <path class="cls-1" d="m931.44,459.2v44.64c-5.13,0-10,0-14.88,0-49.68,0-99.36.02-149.04.02-59.2,0-118.39,0-177.59,0-34.05,0-68.1-.06-102.15,0-2.63,0-3.34-.67-3.32-3.35.13-13.27.02-26.54,0-39.81,0-.34.07-.68.15-1.5h2.99c18.42,0,36.85-.03,55.27.04,2.04,0,2.95-.36,3.48-2.63,10.48-44.54,21.1-89.05,31.66-133.58,1.37-5.77,2.74-11.54,3.84-17.36.45-2.39,1.49-3.08,3.81-3.07,20.87.07,41.74.03,62.6.03,58.5,0,117,0,175.5,0,1.92,0,3.84.02,5.76.04,4.24.05,4.22.06,5.15,4.05,10.77,46.08,21.54,92.17,32.33,138.25.89,3.82,2,7.59,2.79,11.43.44,2.13,1.45,2.83,3.58,2.82,18.25-.06,36.5-.03,54.75-.03,1.03,0,2.06,0,3.3,0Z"/>
    <path class="cls-1" d="m829.63,709.8l181.28-189.65h-232.21l-42.82,50.22c1.97,1.07,3.91,2.26,5.82,3.57,4.13,2.85,4.13,2.95,7.57-.73,13.46-14.43,30.38-20.44,49.66-19.07,26.82,1.9,48.8,21,55.45,47.13,8.74,34.32-14.03,69.23-49.06,76.14-30.66,6.05-66.79-14.1-72.56-51.69-.92-6.01-3.43-10.03-7.83-13.5-4.77-3.76-9.86-6.78-16.04-7.72-4.26-.65-8.08.26-11.7,2.31-6.98,3.94-12.33,9.72-17.61,15.62-2.52,2.82-3.79,6.01-4.81,9.6-6.93,24.45-22.82,39.65-47.65,45.3-29.51,6.72-64.95-11.57-73.31-48.07-5.32-23.21,4.98-52.28,29.49-66.54,16.34-9.51,33.68-11.05,51.68-5.25,11.34,3.65,20.36,10.61,27.93,19.62.57.67,1.15,1.33,1.92,2.22,4.34-4.28,9.11-7.52,14.22-9.95l-41.96-49.21h-232.21l181.27,189.65-196.23,409.59h235.97l82-116.1,82.05,116.1h242.11l-202.43-409.59Z"/>
  </g>
</svg>