<?xml version="1.0" encoding="UTF-8"?>
<svg id="Layer_1" data-name="Layer 1" xmlns="http://www.w3.org/2000/svg" viewBox="0 0 3998.9 1276.39">
  <defs>
    <style>
      .cls-1 {
        fill: #fff;
      }
    </style>
  </defs>
  <path class="cls-1" d="m935.58,795.94c0,127.1-18.59,225.61-55.78,295.75-37.27,70.03-89.94,118.39-158.17,144.95-68.23,26.46-154.47,39.75-258.46,39.75s-189.39-13.28-255.94-39.75c-66.47-26.57-117.7-74.92-153.46-144.95C17.92,1021.55,0,923.04,0,795.94v-23.59h310.12v23.59c0,69.61,12.37,119.24,37.19,148.78,24.82,29.65,63.44,44.42,115.85,44.42s93.39-14.98,120.9-45.06c27.6-29.97,41.39-79.38,41.39-148.14v-455.81h310.12v455.81Z"/>
  <polygon class="cls-1" points="1637.51 340.13 1993.23 340.13 1627.25 981.27 1627.25 1276.39 1317.04 1276.39 1317.04 981.27 951.06 340.13 1307.79 340.13 1472.1 671.81 1637.51 340.13"/>
  <polygon class="cls-1" points="2678.68 832.39 2678.68 340.13 2970.21 340.13 2970.21 1276.39 2617.68 1276.39 2306.47 782.76 2300.24 782.76 2300.24 1276.39 2008.72 1276.39 2008.72 340.13 2365.36 340.13 2672.45 832.39 2678.68 832.39"/>
  <path class="cls-1" d="m3841.65,244.71v69.76c-8.02,0-15.63,0-23.25,0-77.64.01-155.27.03-232.91.03-92.51,0-185.02,0-277.53,0-53.21,0-106.42-.09-159.63.01-4.1,0-5.22-1.04-5.18-5.24.21-20.74.03-41.48,0-62.22,0-.53.1-1.06.24-2.35h4.68c28.79,0,57.58-.05,86.37.06,3.19.01,4.61-.56,5.45-4.11,16.38-69.61,32.97-139.16,49.48-208.74,2.14-9.01,4.28-18.03,6.01-27.12.71-3.74,2.33-4.81,5.96-4.79,32.61.1,65.22.05,97.83.05,91.42,0,182.84,0,274.25,0,3,0,6,.03,9,.07,6.63.08,6.6.09,8.05,6.33,16.83,72.02,33.66,144.03,50.52,216.04,1.4,5.97,3.12,11.86,4.36,17.86.69,3.32,2.26,4.42,5.6,4.41,28.52-.1,57.03-.05,85.55-.05,1.61,0,3.21,0,5.16,0Z"/>
  <path class="cls-1" d="m3682.55,636.32l283.28-296.37h-362.87l-66.91,78.47c3.07,1.68,6.11,3.53,9.1,5.58,6.46,4.45,6.46,4.61,11.83-1.14,21.04-22.54,47.48-31.94,77.6-29.81,41.92,2.97,76.26,32.82,86.66,73.65,13.65,53.63-21.92,108.19-76.66,118.98-47.91,9.45-104.38-22.04-113.38-80.78-1.44-9.4-5.36-15.67-12.23-21.09-7.46-5.88-15.41-10.59-25.06-12.06-6.65-1.01-12.62.41-18.29,3.61-10.91,6.16-19.27,15.19-27.52,24.41-3.94,4.41-5.92,9.39-7.51,15.01-10.83,38.2-35.66,61.97-74.46,70.8-46.12,10.5-101.5-18.08-114.57-75.12-8.31-36.27,7.78-81.69,46.09-103.98,25.53-14.86,52.63-17.26,80.75-8.2,17.72,5.71,31.81,16.57,43.65,30.65.88,1.05,1.8,2.08,3,3.46,6.78-6.69,14.24-11.75,22.22-15.55l-65.57-76.9h-362.87l283.28,296.37-306.66,640.07h368.75l128.14-181.43,128.22,181.43h378.35l-316.35-640.07Z"/>
</svg>